<svg width="36" height="36" viewBox="0 0 36 36" fill="none" xmlns="http://www.w3.org/2000/svg">
<path d="M18 3.3C22.8 3.3 23.4 3.3 25.35 3.45C30.3 3.6 32.55 6 32.7 10.8C32.85 12.75 32.85 13.2 32.85 18C32.85 22.8 32.85 23.4 32.7 25.2C32.55 30 30.15 32.4 25.35 32.55C23.4 32.7 22.95 32.7 18 32.7C13.2 32.7 12.6 32.7 10.8 32.55C5.85 32.4 3.6 30 3.45 25.2C3.3 23.25 3.3 22.8 3.3 18C3.3 13.2 3.3 12.6 3.45 10.8C3.6 6 6 3.6 10.8 3.45C12.6 3.3 13.2 3.3 18 3.3ZM18 0C13.05 0 12.45 0 10.65 0.15C4.05 0.45 0.45 4.05 0.15 10.65C0 12.45 0 13.05 0 18C0 22.95 0 23.55 0.15 25.35C0.45 31.95 4.05 35.55 10.65 35.85C12.45 36 13.05 36 18 36C22.95 36 23.55 36 25.35 35.85C31.95 35.55 35.55 31.95 35.85 25.35C36 23.55 36 22.95 36 18C36 13.05 36 12.45 35.85 10.65C35.55 4.05 31.95 0.45 25.35 0.15C23.55 0 22.95 0 18 0ZM18 8.7C12.9 8.7 8.7 12.9 8.7 18C8.7 23.1 12.9 27.3 18 27.3C23.1 27.3 27.3 23.1 27.3 18C27.3 12.9 23.1 8.7 18 8.7ZM18 24C14.7 24 12 21.3 12 18C12 14.7 14.7 12 18 12C21.3 12 24 14.7 24 18C24 21.3 21.3 24 18 24ZM27.6 6.3C26.4 6.3 25.5 7.2 25.5 8.4C25.5 9.6 26.4 10.5 27.6 10.5C28.8 10.5 29.7 9.6 29.7 8.4C29.7 7.2 28.8 6.3 27.6 6.3Z" fill="black"/>
</svg>
