<svg width="122" height="70" viewBox="0 0 122 70" fill="none" xmlns="http://www.w3.org/2000/svg">
<path d="M5.8572 67.0955C5.52303 67.4188 5.1834 67.6622 4.83832 67.8256C4.49325 67.9855 4.09005 68.0654 3.62874 68.0654C2.82235 68.0654 2.14492 67.7911 1.59643 67.2426C1.40391 67.0465 1.25862 66.854 1.16054 66.6651C1.0661 66.4726 0.995271 66.2492 0.94805 65.9949C0.900829 65.7407 0.87177 65.4809 0.860873 65.2158C0.853608 64.947 0.849976 64.5511 0.849976 64.028C0.849976 63.3487 0.860873 62.842 0.882667 62.5078C0.908094 62.17 0.973476 61.8631 1.07882 61.587C1.18415 61.311 1.35669 61.0531 1.59643 60.8133C2.14492 60.2649 2.82235 59.9906 3.62874 59.9906C4.09005 59.9906 4.49506 60.0742 4.84377 60.2412C5.19611 60.4047 5.53392 60.6444 5.8572 60.9605L5.29055 61.5271C5.01086 61.251 4.75115 61.0531 4.51141 60.9332C4.27167 60.8097 3.97745 60.748 3.62874 60.748C3.35995 60.748 3.1075 60.797 2.87139 60.8951C2.63529 60.9895 2.43006 61.1257 2.2557 61.3037C2.09225 61.4672 1.96875 61.6561 1.8852 61.8704C1.80529 62.081 1.75262 62.3426 1.72719 62.655C1.7054 62.9637 1.6945 63.4214 1.6945 64.028C1.6945 64.8925 1.72719 65.4991 1.79258 65.8478C1.85796 66.1965 2.01234 66.498 2.2557 66.7523C2.61531 67.1228 3.07299 67.308 3.62874 67.308C3.86848 67.308 4.08097 67.279 4.26622 67.2209C4.45511 67.1591 4.62401 67.0756 4.77294 66.9702C4.92187 66.8649 5.09441 66.7178 5.29055 66.5289L5.8572 67.0955ZM13.1079 68H12.2634V64.3713H8.493V68H7.64302V60.056H8.493V63.6139H12.2634V60.056H13.1079V68ZM16.2069 68H15.3569V60.056H16.2069V68ZM24.3185 68H23.5175L19.3003 61.6306V68H18.4504V60.056H19.2513L23.4739 66.4036V60.056H24.3185V68ZM32.1031 68H31.1987L30.5612 66.202H27.0905L26.453 68H25.554L28.4744 60.056H29.1882L32.1031 68ZM30.316 65.4664L28.8449 61.271L27.3465 65.4664H30.316ZM37.9645 60.8133H35.6652V68H34.8152V60.8133H32.5159V60.056H37.9645V60.8133ZM44.3216 68H39.3907V60.056H44.3216V60.8133H40.2407V63.6139H43.7223V64.3713H40.2407V67.2426H44.3216V68ZM50.8695 68H49.8888L47.9545 64.6655L46.0148 68H45.0559L47.486 63.9245L45.2085 60.056H46.1946L47.9545 63.1889L49.7199 60.056H50.7006L48.4122 63.9245L50.8695 68ZM56.7581 60.8133H54.4588V68H53.6088V60.8133H51.3095V60.056H56.7581V60.8133ZM59.0343 68H58.1843V60.056H59.0343V68ZM66.1869 68H61.2778V60.056H62.1278V67.2426H66.1869V68ZM72.5496 68H67.6186V60.056H72.5496V60.8133H68.4686V63.6139H71.9502V64.3713H68.4686V67.2426H72.5496V68ZM78.8958 60.8133H76.5965V68H75.7466V60.8133H73.4473V60.056H78.8958V60.8133ZM85.8796 68H84.8879L83.079 64.4748H81.172V68H80.322V60.056H83.3678C83.8255 60.056 84.2323 60.145 84.5883 60.323C84.9479 60.501 85.2257 60.7589 85.4219 61.0967C85.6217 61.4309 85.7216 61.8195 85.7216 62.2627C85.7216 62.8329 85.5636 63.3052 85.2475 63.6793C84.9315 64.0498 84.5138 64.2877 83.9944 64.3931L85.8796 68ZM84.877 62.2736C84.877 61.8014 84.7336 61.4399 84.4466 61.1893C84.1596 60.9387 83.7746 60.8133 83.2915 60.8133H81.172V63.7283H83.2915C83.5966 63.7283 83.8691 63.6757 84.1088 63.5703C84.3522 63.4613 84.541 63.2979 84.6754 63.0799C84.8098 62.862 84.877 62.5932 84.877 62.2736ZM93.1249 68H92.2204L91.5829 66.202H88.1122L87.4747 68H86.5757L89.4961 60.056H90.2099L93.1249 68ZM91.3377 65.4664L89.8666 61.271L88.3683 65.4664H91.3377ZM99.8689 63.9408V64.2732C99.8689 64.7054 99.8525 65.0941 99.8198 65.4392C99.7908 65.7806 99.7181 66.1148 99.6019 66.4417C99.4893 66.765 99.3167 67.0392 99.0843 67.2644C98.8445 67.5042 98.5521 67.6876 98.2071 67.8147C97.862 67.9382 97.486 68 97.0792 68H94.3549V60.056H97.0792C97.9255 60.056 98.5939 60.3012 99.0843 60.7916C99.3167 61.0204 99.4893 61.2856 99.6019 61.587C99.7181 61.8849 99.7908 62.1936 99.8198 62.5133C99.8525 62.8293 99.8689 63.1962 99.8689 63.6139V63.9408ZM99.0189 63.9408C99.0189 63.5086 99.0098 63.1508 98.9916 62.8675C98.9735 62.5841 98.9263 62.3135 98.85 62.0556C98.7773 61.7941 98.6593 61.5743 98.4958 61.3963C98.1181 61.0077 97.5968 60.8133 96.9321 60.8133H95.2049V67.2426H96.9321C97.5968 67.2426 98.1181 67.0483 98.4958 66.6597C98.7283 66.409 98.8736 66.0639 98.9317 65.6244C98.9898 65.1849 99.0189 64.6237 99.0189 63.9408ZM106.738 68H101.807V60.056H106.738V60.8133H102.657V63.6139H106.139V64.3713H102.657V67.2426H106.738V68ZM114.011 68H113.019L111.21 64.4748H109.303V68H108.453V60.056H111.499C111.957 60.056 112.363 60.145 112.719 60.323C113.079 60.501 113.357 60.7589 113.553 61.0967C113.753 61.4309 113.853 61.8195 113.853 62.2627C113.853 62.8329 113.695 63.3052 113.379 63.6793C113.063 64.0498 112.645 64.2877 112.126 64.3931L114.011 68ZM113.008 62.2736C113.008 61.8014 112.865 61.4399 112.578 61.1893C112.291 60.9387 111.906 60.8133 111.423 60.8133H109.303V63.7283H111.423C111.728 63.7283 112 63.6757 112.24 63.5703C112.483 63.4613 112.672 63.2979 112.807 63.0799C112.941 62.862 113.008 62.5932 113.008 62.2736ZM120.51 65.8151C120.51 66.2728 120.395 66.6724 120.166 67.0138C119.941 67.3516 119.621 67.6113 119.207 67.793C118.797 67.9746 118.316 68.0654 117.763 68.0654C117.364 68.0654 117.006 68.0309 116.69 67.9619C116.374 67.8892 116.082 67.7766 115.813 67.624C115.548 67.4715 115.29 67.2699 115.039 67.0193L115.622 66.4363C115.836 66.6506 116.053 66.8231 116.271 66.9539C116.489 67.081 116.717 67.1718 116.957 67.2263C117.2 67.2808 117.477 67.308 117.785 67.308C118.37 67.308 118.828 67.1773 119.158 66.9157C119.492 66.6542 119.66 66.2946 119.66 65.8369C119.66 65.6299 119.627 65.4374 119.561 65.2594C119.496 65.0814 119.402 64.9415 119.278 64.8398C119.158 64.7309 119.029 64.6528 118.891 64.6055C118.753 64.5547 118.537 64.5075 118.243 64.4639L117.317 64.3168C116.685 64.2151 116.198 64.0153 115.856 63.7174C115.453 63.3578 115.252 62.862 115.252 62.23C115.252 61.7905 115.353 61.4 115.557 61.0585C115.76 60.7171 116.054 60.4537 116.439 60.2685C116.828 60.0832 117.28 59.9906 117.796 59.9906C118.297 59.9906 118.73 60.0578 119.093 60.1922C119.46 60.323 119.816 60.5446 120.161 60.8569L119.616 61.4072C119.365 61.1784 119.093 61.0077 118.799 60.8951C118.508 60.7825 118.163 60.7262 117.763 60.7262C117.418 60.7262 117.119 60.7879 116.864 60.9114C116.614 61.0313 116.421 61.202 116.287 61.4236C116.156 61.6415 116.091 61.8994 116.091 62.1973C116.091 62.6041 116.209 62.9092 116.445 63.1126C116.696 63.3306 117.053 63.4759 117.518 63.5485L118.385 63.6793C118.733 63.7301 119.02 63.801 119.245 63.8918C119.474 63.979 119.672 64.0952 119.839 64.2405C120.286 64.6146 120.51 65.1395 120.51 65.8151Z" fill="black"/>
<path fill-rule="evenodd" clip-rule="evenodd" d="M77.6197 0.00334238H41.1552H40.5806V0.00854668C25.2962 0.285648 13 11.5932 13 25.5017C13 39.584 25.6055 51 41.1552 51V49.9732C26.2548 49.9732 14.1492 39.0301 14.1492 25.5017C14.1492 11.9733 26.2548 1.03012 41.1552 1.03012H50.7285C51.5618 4.86317 59.9001 50.5483 59.9001 50.5483C60.019 50.6819 68.9271 50.5483 68.9271 50.5483C68.9271 50.5483 68.8625 49.9754 68.3391 47.0509C67.8393 44.2578 60.9972 4.59118 60.383 1.03012H73.6209L82.5259 50.5483C82.5259 50.5483 82.2846 50.5516 87.1206 50.5483C88.5952 50.5472 89.2819 50.5475 90.0893 50.5479C90.5416 50.5481 91.0317 50.5483 91.7195 50.5483L83.2289 1.03012H108V0.00334238H106.061C102.752 0.000768861 94.6487 -0.00267556 77.6197 0.00334238Z" fill="black"/>
</svg>
