<svg width="92" height="58" viewBox="0 0 92 58" fill="none" xmlns="http://www.w3.org/2000/svg">
<path d="M4.39884 55.2021C4.14787 55.4449 3.89281 55.6276 3.63365 55.7504C3.37449 55.8704 3.07169 55.9305 2.72524 55.9305C2.11963 55.9305 1.61086 55.7245 1.19894 55.3126C1.05436 55.1653 0.94524 55.0207 0.871585 54.8788C0.800658 54.7342 0.747462 54.5665 0.711999 54.3755C0.676535 54.1846 0.654712 53.9895 0.646528 53.7904C0.641072 53.5885 0.638344 53.2911 0.638344 52.8983C0.638344 52.3882 0.646528 52.0076 0.662896 51.7567C0.681991 51.503 0.731095 51.2725 0.810206 51.0651C0.889317 50.8578 1.0189 50.6641 1.19894 50.4841C1.61086 50.0721 2.11963 49.8662 2.72524 49.8662C3.07169 49.8662 3.37586 49.9289 3.63774 50.0544C3.90235 50.1772 4.15605 50.3572 4.39884 50.5946L3.97328 51.0201C3.76323 50.8128 3.56818 50.6641 3.38813 50.5741C3.20809 50.4813 2.98712 50.435 2.72524 50.435C2.52337 50.435 2.33377 50.4718 2.15646 50.5454C1.97914 50.6164 1.82501 50.7187 1.69407 50.8523C1.57131 50.9751 1.47856 51.117 1.41581 51.2779C1.3558 51.4361 1.31624 51.6325 1.29715 51.8671C1.28078 52.099 1.2726 52.4427 1.2726 52.8983C1.2726 53.5476 1.29715 54.0031 1.34625 54.265C1.39535 54.5269 1.51129 54.7533 1.69407 54.9443C1.96413 55.2225 2.30786 55.3617 2.72524 55.3617C2.90528 55.3617 3.06487 55.3398 3.204 55.2962C3.34585 55.2498 3.4727 55.1871 3.58455 55.108C3.69639 55.0289 3.82597 54.9184 3.97328 54.7765L4.39884 55.2021ZM9.84424 55.8813H9.20999V53.1561H6.37836V55.8813H5.74002V49.9153H6.37836V52.5873H9.20999V49.9153H9.84424V55.8813ZM12.1716 55.8813H11.5332V49.9153H12.1716V55.8813ZM18.2635 55.8813H17.662L14.4948 51.0979V55.8813H13.8565V49.9153H14.458L17.6293 54.6824V49.9153H18.2635V55.8813ZM24.1099 55.8813H23.4307L22.9519 54.531H20.3453L19.8666 55.8813H19.1914L21.3847 49.9153H21.9207L24.1099 55.8813ZM22.7678 53.9786L21.6629 50.8278L20.5376 53.9786H22.7678ZM28.5119 50.4841H26.7851V55.8813H26.1467V50.4841H24.4199V49.9153H28.5119V50.4841ZM33.2862 55.8813H29.583V49.9153H33.2862V50.4841H30.2213V52.5873H32.8361V53.1561H30.2213V55.3126H33.2862V55.8813ZM38.2037 55.8813H37.4672L36.0145 53.3771L34.5578 55.8813H33.8376L35.6626 52.8206L33.9522 49.9153H34.6928L36.0145 52.2682L37.3403 49.9153H38.0769L36.3583 52.8206L38.2037 55.8813ZM42.6261 50.4841H40.8993V55.8813H40.261V50.4841H38.5342V49.9153H42.6261V50.4841ZM44.3356 55.8813H43.6973V49.9153H44.3356V55.8813ZM49.7073 55.8813H46.0205V49.9153H46.6588V55.3126H49.7073V55.8813ZM54.4858 55.8813H50.7825V49.9153H54.4858V50.4841H51.4209V52.5873H54.0356V53.1561H51.4209V55.3126H54.4858V55.8813ZM59.2519 50.4841H57.5251V55.8813H56.8868V50.4841H55.1599V49.9153H59.2519V50.4841ZM64.4968 55.8813H63.7521L62.3935 53.2339H60.9613V55.8813H60.323V49.9153H62.6104C62.9541 49.9153 63.2597 49.9821 63.527 50.1158C63.7971 50.2495 64.0058 50.4431 64.1531 50.6968C64.3031 50.9478 64.3781 51.2397 64.3781 51.5725C64.3781 52.0008 64.2595 52.3555 64.0221 52.6364C63.7848 52.9147 63.4711 53.0934 63.081 53.1725L64.4968 55.8813ZM63.7439 51.5807C63.7439 51.2261 63.6361 50.9546 63.4206 50.7664C63.2051 50.5782 62.9159 50.4841 62.5531 50.4841H60.9613V52.6733H62.5531C62.7823 52.6733 62.9869 52.6337 63.1669 52.5546C63.3497 52.4728 63.4915 52.35 63.5925 52.1863C63.6934 52.0226 63.7439 51.8208 63.7439 51.5807ZM69.9381 55.8813H69.2588L68.7801 54.531H66.1735L65.6948 55.8813H65.0196L67.2129 49.9153H67.7489L69.9381 55.8813ZM68.5959 53.9786L67.4911 50.8278L66.3658 53.9786H68.5959ZM75.0029 52.8328V53.0825C75.0029 53.4071 74.9907 53.699 74.9661 53.9581C74.9443 54.2146 74.8897 54.4655 74.8024 54.7111C74.7179 54.9538 74.5883 55.1598 74.4137 55.3289C74.2337 55.509 74.0141 55.6467 73.7549 55.7422C73.4957 55.835 73.2134 55.8813 72.9079 55.8813H70.8619V49.9153H72.9079C73.5435 49.9153 74.0454 50.0994 74.4137 50.4677C74.5883 50.6396 74.7179 50.8387 74.8024 51.0651C74.8897 51.2888 74.9443 51.5207 74.9661 51.7608C74.9907 51.9981 75.0029 52.2736 75.0029 52.5873V52.8328ZM74.3646 52.8328C74.3646 52.5082 74.3578 52.2395 74.3441 52.0267C74.3305 51.814 74.295 51.6107 74.2378 51.417C74.1832 51.2206 74.0945 51.0556 73.9718 50.9219C73.6881 50.63 73.2966 50.4841 72.7974 50.4841H71.5002V55.3126H72.7974C73.2966 55.3126 73.6881 55.1666 73.9718 54.8747C74.1464 54.6865 74.2555 54.4273 74.2991 54.0973C74.3428 53.7672 74.3646 53.3457 74.3646 52.8328ZM80.1619 55.8813H76.4587V49.9153H80.1619V50.4841H77.097V52.5873H79.7118V53.1561H77.097V55.3126H80.1619V55.8813ZM85.6237 55.8813H84.8789L83.5204 53.2339H82.0882V55.8813H81.4499V49.9153H83.7373C84.081 49.9153 84.3865 49.9821 84.6539 50.1158C84.924 50.2495 85.1326 50.4431 85.28 50.6968C85.43 50.9478 85.505 51.2397 85.505 51.5725C85.505 52.0008 85.3863 52.3555 85.149 52.6364C84.9117 52.9147 84.598 53.0934 84.2079 53.1725L85.6237 55.8813ZM84.8708 51.5807C84.8708 51.2261 84.763 50.9546 84.5475 50.7664C84.332 50.5782 84.0428 50.4841 83.68 50.4841H82.0882V52.6733H83.68C83.9092 52.6733 84.1138 52.6337 84.2938 52.5546C84.4766 52.4728 84.6184 52.35 84.7194 52.1863C84.8203 52.0226 84.8708 51.8208 84.8708 51.5807ZM90.5044 54.2405C90.5044 54.5842 90.4185 54.8843 90.2466 55.1407C90.0775 55.3944 89.8374 55.5895 89.5264 55.7259C89.2182 55.8623 88.8567 55.9305 88.442 55.9305C88.142 55.9305 87.8733 55.9045 87.6359 55.8527C87.3986 55.7981 87.179 55.7136 86.9771 55.599C86.778 55.4844 86.5843 55.333 86.3961 55.1448L86.8339 54.707C86.9949 54.8679 87.1572 54.9975 87.3209 55.0957C87.4845 55.1912 87.6564 55.2594 87.8364 55.3003C88.0192 55.3412 88.2265 55.3617 88.4584 55.3617C88.8976 55.3617 89.2413 55.2635 89.4896 55.0671C89.7406 54.8706 89.866 54.6006 89.866 54.2568C89.866 54.1014 89.8415 53.9568 89.7924 53.8231C89.7433 53.6894 89.6724 53.5844 89.5796 53.508C89.4896 53.4262 89.3927 53.3675 89.2891 53.3321C89.1854 53.2939 89.0231 53.2584 88.8021 53.2257L88.1065 53.1152C87.6318 53.0388 87.2663 52.8888 87.0099 52.6651C86.7071 52.395 86.5557 52.0226 86.5557 51.548C86.5557 51.2179 86.632 50.9246 86.7848 50.6682C86.9376 50.4118 87.1585 50.214 87.4477 50.0749C87.7396 49.9357 88.0792 49.8662 88.4666 49.8662C88.8431 49.8662 89.1677 49.9167 89.4405 50.0176C89.716 50.1158 89.9833 50.2822 90.2425 50.5168L89.8333 50.9301C89.6451 50.7582 89.4405 50.63 89.2195 50.5454C89.0013 50.4609 88.7421 50.4186 88.442 50.4186C88.1829 50.4186 87.9578 50.465 87.7669 50.5577C87.5786 50.6477 87.4341 50.776 87.3331 50.9424C87.2349 51.106 87.1858 51.2997 87.1858 51.5234C87.1858 51.829 87.2745 52.0581 87.4518 52.2109C87.64 52.3745 87.9087 52.4837 88.2579 52.5382L88.9085 52.6364C89.1704 52.6746 89.3859 52.7278 89.5551 52.796C89.7269 52.8615 89.8756 52.9488 90.0011 53.0579C90.3366 53.3389 90.5044 53.7331 90.5044 54.2405Z" fill="white"/>
<path fill-rule="evenodd" clip-rule="evenodd" d="M58.0698 0.00277899H30.7611H30.3308V0.00710605C18.8841 0.237499 9.67529 9.63905 9.67529 21.2031C9.67529 32.9117 19.1157 42.4034 30.7611 42.4034V41.5497C19.602 41.5497 10.5359 32.4511 10.5359 21.2031C10.5359 9.95506 19.602 0.856483 30.7611 0.856483H37.9306C38.5547 4.04343 44.7994 42.0279 44.7994 42.0279C44.8884 42.139 51.5598 42.0279 51.5598 42.0279C51.5598 42.0279 51.5114 41.5515 51.1194 39.1199C50.7451 36.7977 45.621 3.81729 45.161 0.856483H55.075L61.7441 42.0279C61.7441 42.0279 61.5634 42.0306 65.1851 42.0279C66.2895 42.0269 66.8038 42.0272 67.4084 42.0275C67.7471 42.0277 68.1142 42.0279 68.6293 42.0279L62.2705 0.856483H80.822V0.00277899H79.3698C76.8915 0.000639261 70.823 -0.00222457 58.0698 0.00277899Z" fill="white"/>
</svg>
