<svg width="102" height="101" viewBox="0 0 102 101" fill="none" xmlns="http://www.w3.org/2000/svg">
<path d="M101.404 43.5342L101.012 40.1592H97.8803C78.6709 40.1592 64.9796 44.6862 56.167 53.3412C55.8473 53.6552 55.5643 54.0822 55.2568 54.3972C58.3569 58.3172 60.6772 62.4202 62.4079 66.6452C67.8802 58.3182 77.0908 50.5712 91.6994 46.2912C76.3649 56.0922 69.107 70.5442 66.2787 81.8492C66.8712 86.4212 67.086 91.2082 67.086 96.2442C67.086 96.6782 67.0474 97.1082 66.9914 97.5292C74.4102 95.0962 81.2111 90.8892 86.889 85.3082C98.0788 74.3212 103.379 58.9952 101.404 43.5342Z" fill="black"/>
<path d="M60.0676 96.2472C60.0676 79.4162 57.7036 65.4132 45.4142 53.3412C36.6036 44.6862 23.1393 40.1592 3.92895 40.1592H0.798319L0.407371 43.5342C-1.56976 58.9952 3.7121 74.3232 14.8989 85.3072C24.5026 94.7422 37.2796 100.021 50.8773 100.021C53.0071 100.021 55.0005 99.9272 57.1141 99.6682L60.0666 99.3232V96.2472H60.0676ZM22.3228 78.1802C14.904 70.8952 10.7777 61.4552 10.5099 51.3162C23.1678 52.1262 32.4569 55.3612 38.1501 60.9542C45.6941 68.3662 48.9724 76.3872 49.7156 89.7802C39.3667 89.5022 29.6765 85.4072 22.3228 78.1802Z" fill="black"/>
<path d="M98.3099 27.956L90.3881 9.821C89.4586 7.702 87.4255 7.585 85.8749 9.565L83.6718 12.377C74.794 4.977 63.3262 0 50.7976 0C28.5573 0.001 9.61064 14.159 2.69678 33.159H3.92867C7.70885 33.159 11.2915 33.809 14.697 34.122C20.8962 20.583 34.728 11.357 50.7976 11.357C60.7311 11.357 69.8165 15.098 76.7732 21.058L76.7365 21.166L74.4794 24.079C72.9248 26.061 73.5611 27.973 75.8884 28.308L95.7626 31.198C98.0951 31.536 99.2404 30.08 98.3099 27.956Z" fill="black"/>
</svg>
