<svg width="95" height="57" viewBox="0 0 95 57" fill="none" xmlns="http://www.w3.org/2000/svg">
<path fill-rule="evenodd" clip-rule="evenodd" d="M64.4388 0.00370031H28.0764H27.5035V0.00946193C12.2618 0.316237 0 12.8347 0 28.2326C0 43.823 12.5703 56.4615 28.0764 56.4615V55.3248C13.2177 55.3248 1.14598 43.2097 1.14598 28.2326C1.14598 13.2555 13.2177 1.14044 28.0764 1.14044H37.6229C38.4539 5.38396 46.7688 55.9615 46.7688 55.9615C46.8874 56.1094 55.7706 55.9615 55.7706 55.9615C55.7706 55.9615 55.7061 55.3272 55.1842 52.0895C54.6858 48.9973 47.8629 5.08284 47.2504 1.14044H60.4513L69.3313 55.9615C69.3313 55.9615 69.0907 55.9651 73.9132 55.9615C75.3836 55.9602 76.0685 55.9606 76.8735 55.961C77.3245 55.9612 77.8133 55.9615 78.4991 55.9615L70.0323 1.14044H94.7341V0.00370031H92.8004C89.5005 0.000851197 81.4202 -0.00296208 64.4388 0.00370031Z" fill="black"/>
</svg>
